<svg xmlns="http://www.w3.org/2000/svg" version="1.1" xmlns:xlink="http://www.w3.org/1999/xlink" xmlns:svgjs="http://svgjs.dev/svgjs" width="1000" height="154" viewBox="0 0 1000 154"><g transform="matrix(1,0,0,1,-0.6060609891382001,0.44641612739121683)"><svg viewBox="0 0 396 61" data-background-color="#111827" preserveAspectRatio="xMidYMid meet" height="154" width="1000" xmlns="http://www.w3.org/2000/svg" xmlns:xlink="http://www.w3.org/1999/xlink"><g id="tight-bounds" transform="matrix(1,0,0,1,0.24000015169872313,-0.17682716734327641)"><svg viewBox="0 0 395.52 61.35365433468658" height="61.35365433468658" width="395.52"><g><svg viewBox="0 0 478.61480281250607 74.24344450652983" height="61.35365433468658" width="395.52"><g transform="matrix(1,0,0,1,83.09480281250607,10.26085231602547)"><svg viewBox="0 0 395.52 53.721739874478885" height="53.721739874478885" width="395.52"><g id="textblocktransform"><svg viewBox="0 0 395.52 53.721739874478885" height="53.721739874478885" width="395.52" id="textblock"><g><svg viewBox="0 0 395.52 31.614463121783878" height="31.614463121783878" width="395.52"><g transform="matrix(1,0,0,1,0,0)"><svg width="395.52" viewBox="2.049999952316284 -34.599998474121094 437.21002197265625 34.94999694824219" height="31.614463121783878" data-palette-color="#ffe85c"><path d="M17.1-18.7L17.1-18.7Q17.1-19.85 15.8-19.85L15.8-19.85Q14.85-19.85 14.1-18.8 13.35-17.75 12.95-16.18 12.55-14.6 12.55-12.9L12.55-12.9Q12.55-10.4 14.08-8.85 15.6-7.3 18.2-7.3L18.2-7.3Q20.75-7.3 22.6-7.9L22.6-7.9Q23.35-8.1 24.43-8.65 25.5-9.2 25.95-9.2L25.95-9.2Q26.65-9.2 27.1-8.95 27.55-8.7 27.73-8.35 27.9-8 27.9-7.6L27.9-7.6Q27.9-6.9 27.43-5.9 26.95-4.9 25.95-3.8 24.95-2.7 23.63-1.78 22.3-0.85 20.35-0.25 18.4 0.35 16.25 0.35L16.25 0.35Q10.05 0.35 6.05-2.98 2.05-6.3 2.05-12.1L2.05-12.1Q2.05-15.8 3.88-18.57 5.7-21.35 8.9-22.78 12.1-24.2 16.25-24.2L16.25-24.2Q20.2-24.2 22.78-23.28 25.35-22.35 26.45-20.8 27.55-19.25 27.55-17.1L27.55-17.1Q27.55-16.15 27.18-15.15 26.8-14.15 26.03-13.15 25.25-12.15 23.75-11.53 22.25-10.9 20.25-10.9L20.25-10.9Q19.35-10.9 18.78-11 18.2-11.1 17.57-11.43 16.95-11.75 16.65-12.5 16.35-13.25 16.35-14.4L16.35-14.4Q16.35-15.4 16.73-16.82 17.1-18.25 17.1-18.7ZM48.4-11.85L48.4-11.85Q48.4-14.45 47.75-16.43 47.1-18.4 45.85-18.4L45.85-18.4Q45-18.4 44.35-17.4 43.7-16.4 43.4-14.95 43.1-13.5 43.1-11.85L43.1-11.85Q43.1-9.3 43.8-7.38 44.5-5.45 45.8-5.45 47.1-5.45 47.75-7.35 48.4-9.25 48.4-11.85ZM45.8 0.35L45.8 0.35Q41.9 0.35 38.77-1.05 35.65-2.45 33.77-5.25 31.9-8.05 31.9-11.8L31.9-11.8Q31.9-17.5 35.8-20.85 39.7-24.2 45.8-24.2 51.9-24.2 55.75-20.85 59.6-17.5 59.6-11.8L59.6-11.8Q59.6-6.15 55.67-2.9 51.75 0.35 45.8 0.35ZM79.2-4.15L79.15-13.45Q79.15-16.25 76.95-16.25L76.95-16.25Q75.9-16.25 75.22-15.38 74.55-14.5 74.45-13.05L74.45-13.05 74.45-5.35Q74.45-2.3 73.2-1.15 71.95 0 68.8 0L68.8 0Q65.84 0 64.77-1.38 63.7-2.75 63.7-5.9L63.7-5.9 63.7-18.2Q63.7-20.75 65.07-22.3 66.45-23.85 68.75-23.85L68.75-23.85Q70.65-23.85 71.95-23.3 73.25-22.75 73.9-21.4L73.9-21.4Q77.8-23.95 83.4-23.95L83.4-23.95Q86.95-23.95 88.52-21.15 90.09-18.35 90.09-11.95L90.09-11.95Q90.09-8.8 89.95-6.83 89.8-4.85 89.47-3.43 89.15-2 88.45-1.3 87.75-0.6 86.82-0.3 85.9 0 84.45 0L84.45 0Q81.65 0 80.42-1.05 79.2-2.1 79.2-4.15L79.2-4.15ZM108.24-26.3L108.24-26.3Q107.19-25.45 107.19-22.35L107.19-22.35Q110.54-22.35 111.84-21.73 113.14-21.1 113.14-19L113.14-19Q113.14-17.3 111.74-16.78 110.34-16.25 107.19-16.25L107.19-16.25 107.19-7.5Q107.19-3.25 105.87-1.63 104.54 0 101.69 0L101.69 0Q98.89 0 97.59-1.58 96.29-3.15 96.29-7.15L96.29-7.15 96.34-16.25Q92.64-16.3 92.64-19.15L92.64-19.15Q92.64-22.1 96.39-22.3L96.39-22.3Q96.44-28.75 98.27-31.48 100.09-34.2 105.29-34.2L105.29-34.2Q109.44-34.2 111.77-32.5 114.09-30.8 114.09-29.05L114.09-29.05Q114.09-28.3 113.47-27.73 112.84-27.15 111.69-27.15L111.69-27.15Q109.24-27.15 108.24-26.3ZM116.94-30.8L116.94-30.8Q116.94-32.45 118.37-33.52 119.79-34.6 122.39-34.6L122.39-34.6Q127.84-34.6 127.84-30.8L127.84-30.8Q127.84-28.7 126.47-27.85 125.09-27 122.39-27L122.39-27Q120.04-27 118.49-27.9 116.94-28.8 116.94-30.8ZM127.79-18.35L127.79-5.35Q127.79-2.35 126.54-1.18 125.29 0 122.14 0L122.14 0Q119.19 0 118.12-1.38 117.04-2.75 117.04-5.9L117.04-5.9 117.04-18.2Q117.04-20.75 118.42-22.3 119.79-23.85 122.09-23.85L122.09-23.85Q124.79-23.85 126.29-22.68 127.79-21.5 127.79-18.35L127.79-18.35ZM158.99-28.7L158.99-7.5Q158.99-3.45 157.64-1.73 156.29 0 153.49 0L153.49 0Q150.29 0 149.09-2L149.09-2Q145.84 0.35 141.24 0.35L141.24 0.35Q137.34 0.35 134.74-2.88 132.14-6.1 132.14-11.7L132.14-11.7Q132.14-17.4 134.69-20.78 137.24-24.15 141.24-24.15L141.24-24.15Q144.84-24.15 147.99-21.85L147.99-21.85 147.99-28.25Q147.99-31.3 149.49-32.77 150.99-34.25 153.49-34.25L153.49-34.25Q156.24-34.25 157.61-33.15 158.99-32.05 158.99-28.7L158.99-28.7ZM148.09-7.2L148.09-7.2 148.04-16.55Q147.19-17.95 145.84-17.95L145.84-17.95Q144.99-17.95 144.31-17 143.64-16.05 143.29-14.65 142.94-13.25 142.94-11.7L142.94-11.7Q142.94-9.4 143.69-7.6 144.44-5.8 145.79-5.8L145.79-5.8Q146.04-5.8 146.29-5.85 146.54-5.9 146.74-5.98 146.94-6.05 147.14-6.18 147.34-6.3 147.49-6.45 147.64-6.6 147.79-6.8 147.94-7 148.09-7.2ZM177.34 0.3L177.34 0.3Q171.24 0.3 167.26-2.85 163.29-6 163.29-11.45L163.29-11.45Q163.29-17.35 167.21-20.78 171.14-24.2 177.34-24.2L177.34-24.2Q183.19-24.2 185.91-22.13 188.64-20.05 188.64-16.45L188.64-16.45Q188.64-15.75 188.46-15.1 188.29-14.45 187.91-13.83 187.54-13.2 186.91-12.68 186.29-12.15 185.49-11.73 184.69-11.3 183.59-11.08 182.49-10.85 181.24-10.85L181.24-10.85 174.19-10.8Q174.69-9.2 175.99-8.28 177.29-7.35 179.29-7.35L179.29-7.35Q181.44-7.35 183.69-7.9L183.69-7.9Q184.64-8.15 185.76-8.7 186.89-9.25 187.39-9.25L187.39-9.25Q188.24-9.25 188.71-8.75 189.19-8.25 189.19-7.5L189.19-7.5Q189.19-6.6 188.39-5.33 187.59-4.05 186.16-2.78 184.74-1.5 182.39-0.6 180.04 0.3 177.34 0.3ZM173.94-14L173.94-14Q177.39-14.05 177.69-14.05L177.69-14.05Q178.44-14.05 178.79-14.95L178.79-14.95Q179.04-15.6 179.04-16.75L179.04-16.75Q179.04-19.9 177.14-19.9L177.14-19.9Q176.44-19.9 175.76-19.15 175.09-18.4 174.59-17.03 174.09-15.65 173.94-14ZM208.73-4.15L208.68-13.45Q208.68-16.25 206.48-16.25L206.48-16.25Q205.43-16.25 204.76-15.38 204.08-14.5 203.98-13.05L203.98-13.05 203.98-5.35Q203.98-2.3 202.73-1.15 201.48 0 198.33 0L198.33 0Q195.38 0 194.31-1.38 193.23-2.75 193.23-5.9L193.23-5.9 193.23-18.2Q193.23-20.75 194.61-22.3 195.98-23.85 198.28-23.85L198.28-23.85Q200.18-23.85 201.48-23.3 202.78-22.75 203.43-21.4L203.43-21.4Q207.33-23.95 212.93-23.95L212.93-23.95Q216.48-23.95 218.06-21.15 219.63-18.35 219.63-11.95L219.63-11.95Q219.63-8.8 219.48-6.83 219.33-4.85 219.01-3.43 218.68-2 217.98-1.3 217.28-0.6 216.36-0.3 215.43 0 213.98 0L213.98 0Q211.18 0 209.96-1.05 208.73-2.1 208.73-4.15L208.73-4.15ZM226.63-10.7L226.63-10.7 226.63-16.6Q225.38-16.65 224.63-17.03 223.88-17.4 223.56-18 223.23-18.6 223.23-19.5L223.23-19.5Q223.23-22.35 226.68-22.6L226.68-22.6 226.68-27.25Q226.68-29.15 229.43-30.68 232.18-32.2 234.88-32.2L234.88-32.2Q236.53-32.2 237.03-31.25 237.53-30.3 237.53-28.4L237.53-28.4 237.58-22.65 238.93-22.65Q241.68-22.65 242.71-21.93 243.73-21.2 243.73-19.3L243.73-19.3Q243.73-18.5 243.43-17.95 243.13-17.4 242.46-17.1 241.78-16.8 240.83-16.68 239.88-16.55 238.48-16.55L238.48-16.55 237.58-16.55 237.58-11.05Q237.58-10.25 237.66-9.73 237.73-9.2 237.88-8.9 238.03-8.6 238.31-8.5 238.58-8.4 238.98-8.4L238.98-8.4Q239.58-8.4 239.98-8.83 240.38-9.25 240.61-9.78 240.83-10.3 241.21-10.73 241.58-11.15 242.08-11.15L242.08-11.15Q243.23-11.15 243.86-10.6 244.48-10.05 244.48-9.25L244.48-9.25Q244.48-7.9 243.96-6.35 243.43-4.8 242.43-3.35 241.43-1.9 239.66-0.95 237.88 0 235.68 0L235.68 0Q230.73 0 228.68-2.5 226.63-5 226.63-10.7ZM249.03-30.8L249.03-30.8Q249.03-32.45 250.45-33.52 251.88-34.6 254.48-34.6L254.48-34.6Q259.93-34.6 259.93-30.8L259.93-30.8Q259.93-28.7 258.55-27.85 257.18-27 254.48-27L254.48-27Q252.13-27 250.58-27.9 249.03-28.8 249.03-30.8ZM259.88-18.35L259.88-5.35Q259.88-2.35 258.63-1.18 257.38 0 254.23 0L254.23 0Q251.28 0 250.2-1.38 249.13-2.75 249.13-5.9L249.13-5.9 249.13-18.2Q249.13-20.75 250.5-22.3 251.88-23.85 254.18-23.85L254.18-23.85Q256.88-23.85 258.38-22.68 259.88-21.5 259.88-18.35L259.88-18.35ZM273.38 0.3L273.38 0.3Q269.43 0.3 266.83-2.93 264.23-6.15 264.23-11.75L264.23-11.75Q264.23-17.45 266.8-20.83 269.38-24.2 273.38-24.2L273.38-24.2Q277.43-24.2 280.88-21.35L280.88-21.35Q282.23-23.85 285.23-23.85L285.23-23.85Q287.93-23.85 289.43-22.68 290.93-21.5 290.93-18.35L290.93-18.35 290.93-5.35Q290.93-2.35 289.68-1.18 288.43 0 285.28 0L285.28 0Q281.98 0 280.93-1.85L280.93-1.85Q277.73 0.3 273.38 0.3ZM280.18-7.2L280.18-16.55Q279.33-18 277.98-18L277.98-18Q276.68-18 275.88-16.1 275.08-14.2 275.08-11.75L275.08-11.75Q275.08-9.45 275.83-7.65 276.58-5.85 277.93-5.85L277.93-5.85Q279.33-5.85 280.18-7.2L280.18-7.2ZM306.62-28.7L306.62-7.55Q306.62-3.5 305.27-1.75 303.92 0 301.12 0L301.12 0Q298.32 0 297.02-1.58 295.72-3.15 295.72-7.15L295.72-7.15 295.62-28.25Q295.62-29.55 295.9-30.55 296.17-31.55 296.65-32.25 297.12-32.95 297.82-33.4 298.52-33.85 299.35-34.05 300.17-34.25 301.12-34.25L301.12-34.25Q303.87-34.25 305.25-33.15 306.62-32.05 306.62-28.7L306.62-28.7ZM335.77-28.65L335.77-21.8Q339.07-24.25 342.92-24.25L342.92-24.25Q346.82-24.25 349.42-20.95 352.02-17.65 352.02-12.6L352.02-12.6Q352.02-6.5 348.07-3.08 344.12 0.35 337.82 0.35L337.82 0.35Q333.97 0.35 331.09-0.75 328.22-1.85 326.59-4.05 324.97-6.25 324.92-9.35L324.92-9.35 324.82-28.2Q324.82-31.3 326.32-32.75 327.82-34.2 330.32-34.2L330.32-34.2Q333.12-34.2 334.44-32.88 335.77-31.55 335.77-28.65L335.77-28.65ZM335.82-7.65L335.82-7.65Q336.72-5.95 338.32-5.95L338.32-5.95Q339.67-5.95 340.42-7.65 341.17-9.35 341.17-11.55L341.17-11.55Q341.17-12.75 340.97-13.9 340.77-15.05 340.42-15.98 340.07-16.9 339.52-17.48 338.97-18.05 338.27-18.05L338.27-18.05Q336.72-18.05 335.82-16.2L335.82-16.2Q335.82-15.55 335.82-12.48 335.82-9.4 335.82-7.65ZM367.07-19.7L367.12-10.55Q367.12-7.7 369.32-7.7L369.32-7.7Q370.07-7.7 370.64-8.18 371.22-8.65 371.52-9.5 371.82-10.35 371.82-11.45L371.82-11.45 371.82-18.15Q371.82-19.85 372.42-21.13 373.02-22.4 374.17-23.1 375.32-23.8 376.87-23.8L376.87-23.8Q379.57-23.8 381.07-22.63 382.57-21.45 382.57-18.3L382.57-18.3 382.57-5.3Q382.57-2.25 381.32-1.1 380.07 0.05 376.92 0.05L376.92 0.05Q375.57 0.05 374.62-0.23 373.67-0.5 373.09-1.05 372.52-1.6 372.22-2.5L372.22-2.5Q370.17-1.15 367.89-0.6 365.62-0.05 362.82-0.05L362.82-0.05Q359.27-0.05 357.72-2.83 356.17-5.6 356.17-11.95L356.17-11.95Q356.17-15.1 356.32-17.07 356.47-19.05 356.79-20.48 357.12-21.9 357.79-22.6 358.47-23.3 359.39-23.6 360.32-23.9 361.82-23.9L361.82-23.9Q364.62-23.9 365.84-22.85 367.07-21.8 367.07-19.7L367.07-19.7ZM401.06-6.25L407.71-6.3Q409.16-6.3 409.96-5.9 410.76-5.5 411.06-4.75 411.36-4 411.36-2.7L411.36-2.7Q411.36-1.05 410.24-0.53 409.11 0 406.26 0L406.26 0 391.51 0Q389.81 0 388.39-1.18 386.96-2.35 386.96-4.25L386.96-4.25Q386.96-6.35 387.51-7.53 388.06-8.7 390.01-10.65L390.01-10.65 396.56-17.55 392.91-17.55Q390.21-17.55 389.01-18.3 387.81-19.05 387.81-20.75L387.81-20.75Q387.81-22.6 388.66-23.23 389.51-23.85 392.21-23.85L392.21-23.85 407.41-23.85Q409.26-23.85 410.34-22.83 411.41-21.8 411.41-20L411.41-20Q411.41-18.3 410.96-17.4 410.51-16.5 408.61-14.35L408.61-14.35 401.06-6.25ZM428.91-6.25L435.56-6.3Q437.01-6.3 437.81-5.9 438.61-5.5 438.91-4.75 439.21-4 439.21-2.7L439.21-2.7Q439.21-1.05 438.09-0.53 436.96 0 434.11 0L434.11 0 419.36 0Q417.66 0 416.24-1.18 414.81-2.35 414.81-4.25L414.81-4.25Q414.81-6.35 415.36-7.53 415.91-8.7 417.86-10.65L417.86-10.65 424.41-17.55 420.76-17.55Q418.06-17.55 416.86-18.3 415.66-19.05 415.66-20.75L415.66-20.75Q415.66-22.6 416.51-23.23 417.36-23.85 420.06-23.85L420.06-23.85 435.26-23.85Q437.11-23.85 438.19-22.83 439.26-21.8 439.26-20L439.26-20Q439.26-18.3 438.81-17.4 438.36-16.5 436.46-14.35L436.46-14.35 428.91-6.25Z" opacity="1" transform="matrix(1,0,0,1,0,0)" fill="#ffe85c" class="wordmark-text-0" data-fill-palette-color="primary" id="text-0"></path></svg></g></svg></g><g transform="matrix(1,0,0,1,0,39.07787911772213)"><svg viewBox="0 0 232.20979199999996 14.643860756756755" height="14.643860756756755" width="232.20979199999996"><g transform="matrix(1,0,0,1,0,0)"><svg width="232.20979199999996" viewBox="5 -28.75 610.4500122070312 38.5" height="14.643860756756755" data-palette-color="#ffe85c"><path d="M5-28.75L5-28.75 21-28.75 21-22.85 11.3-22.85 11.3-17.2 21-17.2 21-11.5 11.3-11.5 11.3-5.65 20.8-5.65 20.8 0 5 0 5-28.75ZM23.45-5.65L23.45-5.65 23.45 0 39.45 0 39.45-5.65 23.45-5.65ZM39.45-22.85L39.45-22.85 39.45-28.75 23.25-28.75 23.25-22.85 39.45-22.85ZM31.35-11.5L31.35-11.5 31.35-17.2 23.25-17.2 23.25-11.5 31.35-11.5ZM44.45 0.05L44.45-28.75 50.85-28.75 50.85 0.05 44.45 0.05ZM90.05-18.55L90.05-12.85 84.15-9.4 76.15-9.4 76.15-13.25 83.7-13.25 83.7-17.35 76.15-17.35 76.15-22.05 84.15-22.05 90.05-18.55ZM83.5-6.95L90.05-6.95 90.05-3.45 84.15 0 76.15 0 76.15-5.3 83.5-5.3 83.5-6.95ZM59.85-18.55L59.85-3.45 65.75 0 73.7 0 73.7-5.3 66.15-5.3 66.15-9.4 73.7-9.4 73.7-13.25 66.15-13.25 66.15-17.35 73.7-17.35 73.7-22.05 65.75-22.05 59.85-18.55ZM94.54-20.05L100.84-21.85 109.09-9.3 109.09 0 107.14 0 94.54-20.05ZM125.54-20.05L119.49-21.85 111.59-9.3 111.59 0 113.39 0 125.54-20.05ZM130.04-3.4L130.04-9.75 135.74-13.2 143.94-13.2 143.94-9.35 136.39-9.35 136.39-5.25 143.94-5.25 143.94 0.05 135.74 0.05 130.04-3.4ZM136.39-15.05L130.04-15.05 130.04-18.5 135.74-22 143.94-22 143.94-17.3 136.39-17.3 136.39-15.05ZM160.04 0.05L160.04-18.5 154.34-22 146.14-22 146.14-17.3 153.69-17.3 153.69-13.2 146.14-13.2 146.14-9.35 153.69-9.35 153.69-5.25 146.34-5.25 146.34 0.05 160.04 0.05ZM178.04-17.2L178.04-21.85 185.54-21.85 185.54-17.2 178.04-17.2ZM185.54-7.5L191.84-7.5 191.84-3.45 186.14 0 178.04 0 178.04-5.25 185.54-5.25 185.54-7.5ZM165.04-19.35L175.79-25.3 175.79-5.25 175.79 0 169.54-3.45 169.54-17.2 165.04-17.15 165.04-19.35ZM197.34-22L203.64-22 203.64 0.05 197.34 0.05 197.34-22ZM203.54-28.7L203.54-24.05 197.34-24.05 197.34-28.7 203.54-28.7ZM212.63-0.05L212.63-22 218.98-22 218.98-19.85 226.38-22 226.38-17.3 218.98-17.3 218.98-0.05 212.63-0.05ZM242.58-0.05L242.58-18.55 236.68-22 228.78-22 228.78-17.3 236.33-17.3 236.33-0.05 242.58-0.05ZM257.53 2.25L251.08 2.25 251.08 6.3 256.93 9.75 264.83 9.75 264.83 4.5 257.53 4.5 257.53 2.25ZM251.08-6.3L251.08-18.55 256.93-22 264.83-22 264.83-17.2 257.43-17.2 257.43-6.85 264.83-6.85 264.83-2.8 256.93-2.8 251.08-6.3ZM281.13 6.3L281.13-22 267.33-22 267.33-17.2 274.78-17.2 274.78-6.85 267.33-6.85 267.33-2.8 274.78-2.8 274.78 4.5 267.33 4.5 267.33 9.75 275.28 9.75 281.13 6.3ZM314.13-17.2L314.13-21.85 321.63-21.85 321.63-17.2 314.13-17.2ZM321.63-7.5L327.93-7.5 327.93-3.45 322.23 0 314.13 0 314.13-5.25 321.63-5.25 321.63-7.5ZM301.13-19.35L311.88-25.3 311.88-5.25 311.88 0 305.63-3.45 305.63-17.2 301.13-17.15 301.13-19.35ZM334.42 0.05L334.42-28.75 340.57-28.75 340.57-22 348.17-22 348.17-17.2 340.57-17.2 340.57 0.05 334.42 0.05ZM364.17 0.05L364.17-18.55 358.52-22 350.37-22 350.37-17.2 357.87-17.2 357.87 0.05 364.17 0.05ZM402.87-18.55L402.87-12.85 396.97-9.4 388.97-9.4 388.97-13.25 396.52-13.25 396.52-17.35 388.97-17.35 388.97-22.05 396.97-22.05 402.87-18.55ZM396.32-6.95L402.87-6.95 402.87-3.45 396.97 0 388.97 0 388.97-5.3 396.32-5.3 396.32-6.95ZM372.67-18.55L372.67-3.45 378.57 0 386.52 0 386.52-5.3 378.97-5.3 378.97-9.4 386.52-9.4 386.52-13.25 378.97-13.25 378.97-17.35 386.52-17.35 386.52-22.05 378.57-22.05 372.67-18.55ZM428.07-28.75L428.07-28.75 438.37-11.5 438.37 0 422.37-26.9 428.07-28.75ZM451.17-28.75L451.17-28.75 440.82-11.5 440.82 0 456.82-26.9 451.17-28.75ZM457.81-3.5L457.81-18.55 463.66-22 471.56-22 471.56-17.3 464.06-17.3 464.06-5.4 471.56-5.4 471.56-0.05 463.66-0.05 457.81-3.5ZM487.16-3.5L487.16-18.55 481.31-22 473.36-22 473.36-17.3 480.91-17.3 480.91-5.4 473.36-5.4 473.36-0.05 481.31-0.05 487.16-3.5ZM495.16-22L501.46-22 501.46 0.05 495.16 0.05 495.16-22ZM501.36-28.7L501.36-24.05 495.16-24.05 495.16-28.7 501.36-28.7ZM509.46-3.45L509.46-18.6 515.16-22.05 523.36-22.05 523.36-17.35 515.81-17.35 515.81-5.3 523.16-5.3 523.16 0 515.16 0 509.46-3.45ZM533.16-15.1L539.46-15.1 539.46-18.6 533.76-22.05 525.61-22.05 525.61-17.35 533.16-17.35 533.16-15.1ZM533.16-6.95L539.46-6.95 539.46-3.45 533.76 0 525.61 0 525.61-5.3 533.16-5.3 533.16-6.95ZM577.66-18.55L577.66-12.85 571.75-9.4 563.75-9.4 563.75-13.25 571.31-13.25 571.31-17.35 563.75-17.35 563.75-22.05 571.75-22.05 577.66-18.55ZM571.11-6.95L577.66-6.95 577.66-3.45 571.75 0 563.75 0 563.75-5.3 571.11-5.3 571.11-6.95ZM547.46-18.55L547.46-3.45 553.36 0 561.31 0 561.31-5.3 553.75-5.3 553.75-9.4 561.31-9.4 561.31-13.25 553.75-13.25 553.75-17.35 561.31-17.35 561.31-22.05 553.36-22.05 547.46-18.55ZM615.45-9.7L615.45-3.45 609.75 0 601.7 0 601.7-5.25 609.4-5.25 609.4-9.3 601.85-9.3 601.85-13.2 609.75-13.2 615.45-9.7ZM585.65-12.75L585.65-18.4 591.35-21.85 599.45-21.85 599.45-17.2 591.95-17.2 591.95-13.2 599.45-13.2 599.45-9.3 591.35-9.3 585.65-12.75ZM585.65-6.95L591.95-6.95 591.95-5.25 599.45-5.25 599.45 0 591.35 0 585.65-3.45 585.65-6.95ZM615.45-15.05L609.2-15.05 609.2-17.2 601.7-17.2 601.7-21.85 609.75-21.85 615.45-18.4 615.45-15.05Z" opacity="1" transform="matrix(1,0,0,1,0,0)" fill="#ffe85c" class="slogan-text-1" data-fill-palette-color="secondary" id="text-1"></path></svg></g></svg></g></svg></g></svg></g><g><svg viewBox="0 0 75.63138681656783 74.24344450652983" height="74.24344450652983" width="75.63138681656783"><g><svg xmlns="http://www.w3.org/2000/svg" xmlns:xlink="http://www.w3.org/1999/xlink" version="1.1" x="0" y="0" viewBox="13.857000350952148 14.51974868774414 72.29700469970703 70.97025299072266" enable-background="new 0 0 100 100" xml:space="preserve" height="74.24344450652983" width="75.63138681656783" class="icon-icon-0" data-fill-palette-color="accent" id="icon-0"><g fill="#ffe85c" data-fill-palette-color="accent"><path d="M55.674 85.49c-0.246 0-0.482-0.061-0.711-0.166-0.529-0.268-0.871-0.813-0.871-1.408v-9.964H47.32c-8.295 0-15.044-6.701-15.044-14.929V48.072c0-8.197 6.66-14.871 14.856-14.871h24.166c8.196 0 14.856 6.674 14.856 14.871v10.952c0 8.017-6.379 14.565-14.32 14.85L56.607 85.176C56.331 85.385 56.007 85.49 55.674 85.49zM47.133 36.364c-6.465 0-11.711 5.254-11.711 11.708v10.952c0 6.373 5.449 11.766 11.906 11.766l8.349 0.009c0.865 0 1.568 0.71 1.568 1.572v8.407l13.112-9.732c0.271-0.218 0.604-0.314 0.94-0.314 6.457 0 11.703-5.252 11.703-11.705V48.072c0-6.454-5.246-11.708-11.703-11.708H47.133z" fill="#ffe85c" data-fill-palette-color="accent"></path><path d="M20.795 48.966c-0.409 0-0.811-0.149-1.115-0.457-7.764-7.768-7.764-20.402 0-28.167 7.765-7.763 20.395-7.763 28.169 0 0.614 0.62 0.614 1.615 0 2.232-0.612 0.612-1.62 0.612-2.234 0-6.533-6.535-17.175-6.535-23.707 0-3.164 3.164-4.916 7.383-4.916 11.85 0 4.478 1.752 8.688 4.916 11.858 0.616 0.618 0.616 1.606 0 2.227C21.603 48.816 21.198 48.966 20.795 48.966zM25.121 44.648c-0.416 0-0.814-0.149-1.125-0.46-2.609-2.606-4.05-6.081-4.044-9.765 0.005-3.678 1.444-7.138 4.055-9.749 5.393-5.382 14.143-5.388 19.518-0.013 0.617 0.616 0.617 1.608 0 2.234-0.619 0.616-1.6 0.616-2.227 0-4.151-4.154-10.9-4.15-15.062 0.012-2.012 2.008-3.126 4.68-3.126 7.524-0.005 2.843 1.104 5.512 3.113 7.53 0.616 0.615 0.622 1.612 0 2.226C25.926 44.499 25.52 44.648 25.121 44.648z" fill="#ffe85c" data-fill-palette-color="accent"></path></g></svg></g></svg></g></svg></g><defs></defs></svg><rect width="395.52" height="61.35365433468658" fill="none" stroke="none" visibility="hidden"></rect></g></svg></g></svg>