<svg viewBox="0.7371 -0.4464 157.7885 154.8928" xmlns="http://www.w3.org/2000/svg">
  <path d="M55.674 85.49c-0.246 0-0.482-0.061-0.711-0.166-0.529-0.268-0.871-0.813-0.871-1.408v-9.964H47.32c-8.295 0-15.044-6.701-15.044-14.929V48.072c0-8.197 6.66-14.871 14.856-14.871h24.166c8.196 0 14.856 6.674 14.856 14.871v10.952c0 8.017-6.379 14.565-14.32 14.85L56.607 85.176C56.331 85.385 56.007 85.49 55.674 85.49zM47.133 36.364c-6.465 0-11.711 5.254-11.711 11.708v10.952c0 6.373 5.449 11.766 11.906 11.766l8.349 0.009c0.865 0 1.568 0.71 1.568 1.572v8.407l13.112-9.732c0.271-0.218 0.604-0.314 0.94-0.314 6.457 0 11.703-5.252 11.703-11.705V48.072c0-6.454-5.246-11.708-11.703-11.708H47.133z" fill="#ffe85c" data-fill-palette-color="accent" transform="matrix(2.182503461951694, 0, 0, 2.182503461951694, -29.505896396377036, -32.13581496969829)"/>
  <path d="M20.795 48.966c-0.409 0-0.811-0.149-1.115-0.457-7.764-7.768-7.764-20.402 0-28.167 7.765-7.763 20.395-7.763 28.169 0 0.614 0.62 0.614 1.615 0 2.232-0.612 0.612-1.62 0.612-2.234 0-6.533-6.535-17.175-6.535-23.707 0-3.164 3.164-4.916 7.383-4.916 11.85 0 4.478 1.752 8.688 4.916 11.858 0.616 0.618 0.616 1.606 0 2.227C21.603 48.816 21.198 48.966 20.795 48.966zM25.121 44.648c-0.416 0-0.814-0.149-1.125-0.46-2.609-2.606-4.05-6.081-4.044-9.765 0.005-3.678 1.444-7.138 4.055-9.749 5.393-5.382 14.143-5.388 19.518-0.013 0.617 0.616 0.617 1.608 0 2.234-0.619 0.616-1.6 0.616-2.227 0-4.151-4.154-10.9-4.15-15.062 0.012-2.012 2.008-3.126 4.68-3.126 7.524-0.005 2.843 1.104 5.512 3.113 7.53 0.616 0.615 0.622 1.612 0 2.226C25.926 44.499 25.52 44.648 25.121 44.648z" fill="#ffe85c" data-fill-palette-color="accent" transform="matrix(2.182503461951694, 0, 0, 2.182503461951694, -29.505896396377036, -32.13581496969829)"/>
</svg>
